<svg width="51" height="86" viewBox="0 0 51 86" fill="none" xmlns="http://www.w3.org/2000/svg">
<path d="M43.9991 51.6152C39.3846 50.7918 35.1617 48.6151 30.6025 47.5798C33.7785 43.9089 38.112 41.1142 41.0608 37.2627C42.0411 36.3954 43.0636 35.5654 44.1522 34.8201C44.8105 34.3717 44.7035 33.3252 43.9799 33.0058C42.2576 32.2422 40.4904 31.6177 38.7132 31.0251C37.1506 30.3203 35.5791 29.6251 34.0045 28.9468C31.5483 27.8865 28.916 26.7235 26.2548 25.9347C25.9473 25.7404 25.6396 25.5369 25.339 25.3276C29.7574 21.3639 33.7753 16.8403 38.7064 13.5104C38.8976 13.62 39.1198 13.6616 39.3357 13.6366C39.4214 13.6983 39.5074 13.7692 39.5979 13.8604C39.6113 13.871 39.6312 13.8573 39.625 13.8408C39.6031 13.7989 39.5572 13.7097 39.5051 13.6041C39.9823 13.4744 40.3427 13.0411 40.0642 12.4726C38.6531 9.58102 34.9107 7.51765 32.3145 5.87433C29.3102 3.96824 26.023 2.08415 22.5425 1.24694C22.2957 1.18959 22.1287 1.33707 22.0652 1.52698C21.9734 1.44883 21.873 1.38958 21.753 1.35335C21.7379 1.3465 21.7218 1.36197 21.7335 1.37637C22.5891 2.56676 21.3562 5.34267 20.9644 6.48626C19.9574 9.45583 18.7294 12.3615 17.4759 15.2328C15.2617 20.311 12.789 25.2672 10.4729 30.2991C10.3117 30.6543 10.485 31.0337 10.812 31.2049C16.0789 33.9467 22.1311 34.4977 27.4642 37.0736C26.7993 37.8973 26.1807 38.7693 25.4849 39.5608C24.3053 40.9072 23.0475 42.1954 21.8162 43.4956C19.4234 46.032 16.9247 48.4611 14.695 51.1491C14.2709 51.6628 14.5311 52.6422 15.2705 52.6862C20.2457 52.9853 25.3206 54.7377 29.9097 56.6887C27.783 60.0112 25.2804 63.1904 22.9765 66.3824C20.6884 69.5496 18.4744 72.7641 16.1863 75.9313C15.0289 77.5294 13.4761 78.6563 12.1624 80.0877L12.2087 79.9857C12.219 79.963 12.1851 79.9476 12.1748 79.9703L12.0822 80.1743C12.0804 80.1781 12.0804 80.1781 12.075 80.1801C11.9488 80.2778 11.8264 80.3772 11.7002 80.4748C11.5596 80.5842 11.5654 80.7417 11.638 80.8521C11.5999 81.2267 12.126 81.3197 12.63 81.1612C12.7839 81.1126 12.7233 80.8755 12.5663 80.8908C12.3023 80.9213 12.2225 80.8668 12.2414 80.7752C23.7332 72.8593 34.3143 63.4637 43.8546 53.2857C44.8178 53.3174 45.0178 51.7951 43.9991 51.6152ZM27.2672 67.6785C25.2972 68.6525 23.3163 69.7309 21.7989 71.2704C21.7149 71.3552 21.8479 71.4931 21.9398 71.4209C23.4594 70.247 24.9954 69.2172 26.6027 68.2609C23.2922 71.1462 19.9121 73.9544 16.4816 76.7033C17.5501 75.4112 18.4662 73.9542 19.4048 72.6077C21.305 69.8842 23.3424 67.2593 25.2806 64.5621C27.0742 62.0635 28.7444 59.3358 30.7779 57.0099C31.6506 57.1008 32.1563 55.7765 31.2268 55.35C29.9446 54.7588 28.6092 54.1845 27.2402 53.6542C28.268 53.3234 29.2051 52.6414 29.9221 51.8733C29.9845 51.8059 29.8776 51.721 29.8131 51.7828C28.9483 52.6661 27.9729 53.1621 26.8454 53.5023C24.9092 52.7692 22.9112 52.122 20.8954 51.6443C22.7578 50.4164 24.8481 49.4879 26.9215 48.7568C26.9435 48.7486 26.9329 48.7119 26.9092 48.7239C24.7079 49.6066 22.5045 50.3334 20.531 51.5655C19.4636 51.3225 18.3924 51.1278 17.3254 50.9943C19.3458 48.6671 21.4828 46.4337 23.5262 44.126C25.1673 42.2737 27.3349 39.913 28.39 37.4483C29.0095 37.4561 29.369 36.5439 28.8467 36.1017C28.8563 36.0605 28.8697 36.021 28.8776 35.9836C28.9208 35.7982 28.6812 35.735 28.5722 35.845C28.5489 35.8663 28.5293 35.8893 28.5098 35.9123C27.3938 35.3556 26.2408 34.9006 25.0709 34.4926C26.1019 33.9444 27.0314 33.2089 28.1234 32.7568C28.2074 32.722 28.1601 32.5958 28.074 32.6251C26.953 33.0412 25.7033 33.6404 24.7368 34.3773C22.5088 33.6257 20.2171 33.0547 17.9538 32.4009C20.2045 31.5999 22.212 30.1827 24.4277 29.2884C24.4496 29.2801 24.4373 29.2472 24.4154 29.2554C22.139 30.1131 19.9862 31.3094 17.755 32.2879C17.7331 32.2962 17.7245 32.3151 17.7138 32.3285C15.7652 31.7629 13.842 31.1313 12.0062 30.257C12.2813 29.671 12.6861 28.8295 13.1783 27.7952C17.6388 24.2198 22.493 21.2697 27.0316 17.8026C27.0515 17.7888 27.0282 17.76 27.0121 17.7755C22.6339 21.0192 17.5043 23.4844 13.473 27.1862C16.8033 20.1404 23.3806 5.85153 22.4229 2.18148C27.9031 4.87423 33.7262 8.12367 37.8894 12.6656C35.1939 13.2647 32.2972 15.6589 30.446 17.1927C28.3428 18.931 25.812 21.0903 24.2457 23.569C24.0626 23.732 23.8812 23.8911 23.696 24.0486C23.6902 24.0414 23.6789 24.0363 23.6731 24.0291C23.6463 24.0078 23.6066 24.0353 23.6189 24.0683C23.623 24.0792 23.6309 24.0919 23.6333 24.1067C23.5723 24.161 23.5112 24.2153 23.4519 24.2659C23.1409 24.5302 23.0424 24.8774 23.0821 25.2007C23.0691 25.1994 23.056 25.198 23.0447 25.1929C22.6831 25.1381 22.5547 25.6312 22.8646 25.7901C22.9797 25.8469 23.0966 25.8999 23.2063 25.9588C23.2844 26.2677 23.622 26.4255 23.9123 26.3067C24.5783 26.6227 25.2528 26.9198 25.9346 27.211C27.642 28.5785 29.8856 29.5058 31.6741 30.304C34.8664 31.7259 38.1816 32.8571 41.4079 34.1941C39.0908 35.9128 36.946 37.9329 35.7345 40.5317C35.3374 40.8755 34.9424 41.2247 34.5454 41.5685C29.8061 43.1036 24.0705 45.5214 21.1551 49.5796C21.0475 49.7266 21.2462 49.8898 21.3693 49.7588C24.9715 45.9806 29.4804 43.4706 34.3568 41.7335C32.4188 43.4284 30.5117 45.1554 28.8684 47.1526C28.2776 47.8732 29.2114 48.7711 29.8789 48.3723C29.917 48.3987 29.955 48.4251 30.002 48.4419C34.2001 49.8919 38.1896 52.0219 42.5291 53.0303C37.6904 58.1702 32.5669 63.0258 27.2672 67.6785Z" fill="#5E4F47" stroke="#5E4F47" stroke-width="0.3"/>
<path d="M20.9784 12.0742C22.4917 11.4852 23.918 10.6472 25.4165 10.0106C26.853 9.40042 28.298 8.82152 29.6982 8.13111C29.7565 8.10289 29.7233 8.00578 29.6612 8.0323C26.8441 9.30981 23.3522 9.98026 20.8808 11.8886C20.7872 11.9646 20.867 12.1193 20.9784 12.0742Z" fill="#5E4F47" stroke="#5E4F47" stroke-width="0.3"/>
<path d="M30.1919 12.6752C26.3304 15.9028 21.747 17.6453 17.2935 19.8432C17.1714 19.9017 17.2396 20.0922 17.3674 20.0408C21.8929 18.2356 26.5124 15.9125 30.219 12.7057C30.2313 12.6886 30.2118 12.6615 30.1919 12.6752Z" fill="#5E4F47" stroke="#5E4F47" stroke-width="0.3"/>
<path d="M27.5391 39.925C29.9738 38.2779 32.6287 37.1273 35.3512 36.0483C35.4571 36.0053 35.3975 35.8461 35.2895 35.8836C32.5743 36.8565 29.59 37.7711 27.3983 39.7244C27.2834 39.8271 27.4071 40.0154 27.5391 39.925Z" fill="#5E4F47" stroke="#5E4F47" stroke-width="0.3"/>
<path d="M30.1936 59.0273C32.1186 57.3311 34.211 56.2577 36.7608 55.8796C36.829 55.8696 36.816 55.768 36.7495 55.7742C34.3348 56.0451 31.6306 56.9136 30.0257 58.8463C29.9407 58.9535 30.0877 59.1205 30.1936 59.0273Z" fill="#5E4F47" stroke="#5E4F47" stroke-width="0.3"/>
<path d="M31.9003 59.7057C29.8983 61.2712 27.5399 62.4699 25.8188 64.368C25.744 64.4525 25.8739 64.5571 25.9545 64.4797C27.7983 62.692 29.9713 61.3909 31.9627 59.7887C32.0131 59.7478 31.9525 59.661 31.9003 59.7057Z" fill="#5E4F47" stroke="#5E4F47" stroke-width="0.3"/>
</svg>
