<svg width="53" height="59" viewBox="0 0 53 59" fill="none" xmlns="http://www.w3.org/2000/svg">
<path d="M35.6292 40.8904C34.2564 41.955 32.9144 43.1555 31.3525 43.9421C31.651 44.101 31.919 44.3384 32.1152 44.6201C33.6194 43.76 34.904 42.5215 35.7821 41.0253C35.8341 40.9398 35.71 40.8283 35.6292 40.8904Z" fill="#5E4F47"/>
<path d="M51.335 18.3269C50.9489 18.4231 50.579 18.5586 50.22 18.7174C50.5907 17.8992 50.9524 17.081 51.3088 16.2555C51.5057 15.792 51.3523 15.3086 50.9065 15.0577C46.6275 12.6391 42.1961 10.4876 37.763 8.36659C35.6382 7.35214 33.5079 6.31265 31.3615 5.31417C31.3902 5.27501 31.4189 5.23586 31.4422 5.18952C31.4941 5.08616 31.5497 4.98461 31.6052 4.88305C31.2278 4.74691 30.8251 4.53557 30.3935 4.25615C30.3362 4.36127 30.2734 4.46815 30.2197 4.57507C30.1875 4.63923 30.1696 4.70168 30.1571 4.76237C28.0916 3.81795 26.0047 2.92524 23.8963 2.12891C23.8023 1.73344 23.1912 1.54238 22.9422 2.00206C22.2021 3.36684 21.4585 4.72981 20.7167 6.09815C20.6821 5.76377 20.2345 5.60579 20.0015 5.95297C16.4072 11.3746 13.721 17.4536 10.9986 23.3447C9.01775 27.6263 6.99731 31.8879 4.9517 36.1369C4.27138 36.5227 3.63607 36.9802 3.12312 37.5796C2.35728 38.476 2.6295 39.1531 3.06191 40.049C2.95623 40.2683 2.85055 40.4875 2.74486 40.7067C2.30959 41.6085 3.07774 42.3652 3.84486 42.3802C3.75718 42.6263 3.91391 42.9417 4.16726 42.9753C4.68299 44.3507 6.10502 45.0789 7.3026 45.8772C9.46939 47.328 11.8119 48.5456 14.0952 49.8004C15.9614 50.8277 17.8437 51.814 19.7349 52.7824C19.7961 52.8757 19.8968 52.9442 20.0118 52.9216C22.8702 54.3762 25.7466 55.7862 28.6301 57.1909C29.3995 57.5687 30.0617 57.0756 30.253 56.453C30.5856 56.5621 30.9699 56.4784 31.1705 56.0792C32.5696 53.2688 33.7045 50.3211 34.886 47.4147C34.9004 47.3773 34.9129 47.3434 34.9308 47.3077C36.8966 43.7731 38.8641 40.2439 40.8587 36.7237C44.0736 31.0444 47.1968 25.3056 49.9209 19.3752C50.3947 19.0597 50.8956 18.7981 51.4324 18.608C51.612 18.5465 51.52 18.2815 51.335 18.3269ZM14.8137 20.3065C14.9766 19.9465 15.1396 19.5864 15.3026 19.2263C15.3279 19.373 15.4162 19.5111 15.5295 19.6171C15.2783 19.8391 15.0379 20.0665 14.8137 20.3065ZM12.9511 24.4064C12.9618 24.3851 12.969 24.3619 12.9797 24.3405C13.123 24.0285 13.2663 23.7166 13.4078 23.3993C13.4096 23.4315 13.4115 23.4637 13.4133 23.4958C13.437 23.7086 13.5862 23.8328 13.7498 23.8569C13.4841 24.0181 13.2059 24.2041 12.9511 24.4064ZM12.1936 26.1017C12.2116 26.1465 12.235 26.1895 12.262 26.2344C12.3538 26.3832 12.5335 26.3932 12.6771 26.3225C13.2462 26.0415 13.6838 25.4935 14.1863 25.1121C14.9866 24.5054 15.877 24.0154 16.7242 23.4768C17.128 23.2199 17.6557 22.8333 18.07 22.3674C17.6529 23.4391 17.261 24.5235 16.8925 25.6151C14.8609 25.795 12.9055 26.4864 11.4181 27.8327C11.676 27.2569 11.9339 26.6811 12.1936 26.1017ZM17.9739 17.917C19.0807 16.7276 20.2558 15.644 21.5281 14.6182C20.7219 16.1685 19.9785 17.7548 19.2874 19.3719C19.0994 19.8087 18.9167 20.2437 18.7359 20.6841C18.7232 20.6018 18.7051 20.5213 18.6745 20.4389C18.6492 20.3727 18.5379 20.3881 18.5506 20.4615C18.6847 21.3147 17.5984 21.7554 16.9737 22.0843C16.1552 22.5211 15.3366 22.9579 14.527 23.4127C14.4355 23.4694 14.3242 23.5295 14.1985 23.6003C14.2057 23.586 14.2093 23.57 14.2128 23.5539C14.3986 22.8347 15.0963 21.9844 15.5428 21.4186C16.2924 20.4649 17.2379 19.6142 18.2862 18.9981C18.8229 18.683 18.4967 17.9521 17.9739 17.917ZM22.319 12.3727C22.5613 12.2132 22.8036 12.0537 23.0387 11.8906C22.9222 12.0865 22.8093 12.2843 22.6946 12.4856C22.5903 12.4153 22.4627 12.3735 22.319 12.3727ZM46.1574 22.0598C45.459 22.3651 44.7931 22.7492 44.1416 23.203C43.1545 23.8855 41.2039 25.4097 41.5202 26.7608C41.5527 26.9021 41.7396 26.9872 41.8725 26.9379C42.4327 26.7283 42.6118 26.3094 42.956 25.8306C43.3935 25.22 43.9407 24.6959 44.4951 24.1933C44.5364 24.156 44.583 24.1169 44.6297 24.0778C43.9215 25.0836 43.2564 26.12 42.6256 27.178C41.8214 27.631 41.0244 28.0876 40.24 28.5907C39.8075 28.8689 39.3121 29.1556 38.8221 29.4674C40.7925 25.4128 42.8654 21.3873 44.5661 17.215C44.6592 16.985 44.35 16.8296 44.221 17.0415C41.8856 20.8993 39.9026 24.97 37.8171 28.9668C35.8284 32.7711 33.908 36.6098 31.9803 40.4449C31.9299 40.3838 31.8598 40.3262 31.7807 40.2775C32.0742 40.7778 32.0804 41.3747 31.8854 41.9062C32.1677 42.0704 32.5611 42.0493 32.7474 41.6787L32.8136 41.5468C33.6182 41.3261 34.4185 40.7105 35.0683 40.3317C35.5835 40.0325 36.0825 39.7208 36.576 39.4019C35.9458 40.8977 35.3353 42.408 34.7266 43.9147C34.4614 44.3796 34.1962 44.8446 33.9327 45.306C33.4318 45.5319 32.9364 45.774 32.4481 46.0196C32.4409 46.0518 32.4374 46.0857 32.4248 46.1196C32.3515 46.3729 32.2711 46.6316 32.1852 46.8921C32.616 46.6175 33.0521 46.3501 33.4901 46.088C32.0565 48.6445 30.6697 51.2245 29.3889 53.8533C29.1018 54.0661 28.7931 54.277 28.5904 54.5547C27.6071 54.047 26.6291 53.5376 25.6457 53.0299C25.7316 52.832 25.8284 52.6396 25.9575 52.4544C26.117 52.2266 26.318 52.0329 26.5333 51.8554C26.1649 51.8176 25.8002 51.7369 25.4371 51.617C25.1321 51.8833 24.8576 52.1874 24.6677 52.5205C23.6789 52.0056 22.6883 51.4944 21.6977 50.9831C21.8914 50.75 22.0869 50.5134 22.2806 50.2804C21.9717 50.3305 21.6806 50.3092 21.4057 50.2291C21.2513 50.3479 21.1006 50.4686 20.9499 50.5982C20.1391 50.1773 19.3265 49.7599 18.5157 49.339C18.7291 49.1115 18.912 48.8551 19.0769 48.5808C18.8898 48.4243 18.6992 48.2749 18.5014 48.1487C18.4511 48.1145 18.4007 48.0892 18.3486 48.0585C18.1173 48.3485 17.8697 48.617 17.6168 48.8783C16.8977 48.5079 16.1786 48.1375 15.4595 47.7671C15.4127 47.7436 15.3678 47.7166 15.321 47.6931C15.3963 47.5434 15.4769 47.4009 15.5629 47.2566C15.5792 47.3407 15.6045 47.4338 15.6388 47.5269C15.7145 47.7167 15.8692 47.8838 16.0794 47.9136C16.5089 47.9821 16.8175 47.6997 17.1405 47.4513C16.47 47.1634 15.7924 46.8898 15.1684 46.4466C15.102 46.516 15.0338 46.5889 14.9729 46.6654C14.8294 46.8343 14.6554 47.0371 14.4994 47.2578C14.1614 47.079 13.8217 46.9038 13.4855 46.7214C13.8642 46.4697 14.2627 46.2504 14.6774 46.0615C14.4274 45.8599 14.19 45.6781 13.949 45.5123C13.4822 45.6705 13.0243 45.8556 12.5845 46.0855C12.5361 46.1102 12.4876 46.135 12.4427 46.1615C11.7487 45.7859 11.0548 45.4103 10.3572 45.0419C10.6694 44.7434 10.9456 44.4 11.1984 44.0404C10.8676 43.8563 10.5547 43.6544 10.2615 43.4312C9.94586 43.7815 9.64278 44.1515 9.38102 44.5289C9.1527 44.4097 8.92617 44.2869 8.69606 44.1712C8.47314 44.0592 8.26099 43.9436 8.04706 43.8316C8.50129 43.6358 8.96453 43.4579 9.44938 43.3176C9.611 43.2738 9.77081 43.2158 9.92881 43.1523C9.84787 43.0804 9.76871 43.0049 9.69316 42.9312C9.57463 42.9609 9.45611 42.9906 9.34476 43.015C9.04665 43.0884 8.74492 43.1421 8.43777 43.1797C8.64746 42.8253 8.82299 42.4492 9.06145 42.1181C8.95161 41.9334 8.85972 41.7399 8.78757 41.534C8.08583 42.0161 7.7097 42.8272 6.98993 43.2645C6.39487 42.961 5.79088 42.6931 5.14031 42.5179C5.75954 42.1193 6.3391 41.6203 6.94036 41.2216C7.47341 40.869 8.02807 40.545 8.59172 40.2301C8.59518 40.1336 8.59683 40.0317 8.60747 39.9299C8.62519 39.7602 8.65908 39.5853 8.70014 39.405C8.17767 39.6201 7.66782 39.8639 7.158 40.1345C6.51713 40.4687 5.7685 40.829 5.09903 41.2649C5.81745 39.8625 6.51788 38.451 7.19854 37.0252C7.50554 36.8803 7.81253 36.7355 8.11954 36.5996C10.0782 35.7134 12.2059 34.8943 13.6066 33.2098C13.8146 32.9572 13.5232 32.65 13.2485 32.7932C11.6903 33.5905 9.98255 34.0938 8.31086 34.6778C8.44161 34.3997 8.57056 34.1163 8.70131 33.8382C8.94182 33.6823 9.16792 33.5013 9.42098 33.3294C10.0725 32.8844 10.751 32.4933 11.4493 32.1255C12.7849 31.4127 14.1079 30.7428 15.3787 29.9171C15.7825 29.6513 15.469 29.0027 15.0093 29.1556C13.5656 29.6354 12.1236 30.0312 10.7214 30.6256C10.515 30.7138 10.2851 30.8037 10.0445 30.906C10.1753 30.619 10.3006 30.3337 10.4296 30.0503C10.6813 30.2036 11.0281 30.2216 11.2541 29.9691C12.7786 28.2442 14.5678 26.8888 16.7208 26.1628C16.0929 28.084 15.5567 30.0289 15.1427 31.9996C14.9963 32.6939 15.6149 33.0941 16.1627 33.0347C16.2402 33.1763 16.3194 33.3143 16.4094 33.4489C16.4793 33.3188 16.551 33.1941 16.6353 33.0713C16.6944 32.9715 16.7626 32.8897 16.8271 32.806C16.8001 32.7791 16.7678 32.7539 16.7426 32.7234C16.8197 32.6237 16.8752 32.5043 16.9091 32.3562C17.7889 28.1507 19.0802 24.0404 20.6357 20.0406C22.2306 15.9357 24.0464 11.8123 26.3118 8.03091C26.4821 7.74593 26.0217 7.42525 25.8227 7.69578C25.5645 8.04818 25.3153 8.40063 25.0661 8.75308C24.9922 8.60434 24.8914 8.45545 24.7421 8.31343C24.7331 8.30445 24.7241 8.31333 24.7242 8.32227C24.7153 9.70186 22.9578 10.6088 21.9617 11.2377C20.7878 11.9781 19.4953 12.65 18.5662 13.7099C18.1662 14.1652 18.548 14.7856 19.042 14.8152C17.795 15.9162 16.6362 17.1107 15.6644 18.4616C16.6243 16.3279 17.5734 14.1886 18.4722 12.0331C18.5837 12.098 18.7364 12.0899 18.8638 11.9799C20.2185 10.8079 20.8823 8.9227 21.6185 7.33272C22.308 5.80861 23.0154 4.28459 23.7175 2.76234C26.0406 4.2336 28.4874 5.53042 30.9629 6.77021C30.3705 7.05283 29.8357 7.42692 29.5078 8.02555C29.4235 8.18413 29.4257 8.43077 29.5391 8.57258C29.6218 8.6767 29.6508 8.82519 29.73 8.93643C29.8596 9.11765 30.2117 9.09818 30.2329 8.84095C30.2347 8.82845 30.24 8.81776 30.24 8.80882C30.267 8.81791 30.3602 8.71299 30.4158 8.64718C30.545 8.50672 30.622 8.34453 30.7601 8.20412C31.101 7.85754 31.4958 7.53807 31.8888 7.2311C33.4726 8.01377 35.0653 8.77862 36.6329 9.55762C40.818 11.6344 44.9548 13.7895 49.0341 16.0587C47.6207 16.3618 46.5007 17.0668 45.399 17.9774C44.5646 18.6697 42.9207 19.8883 43.2153 21.1302C43.2496 21.2769 43.406 21.351 43.5426 21.3482C44.5773 21.3504 45.4054 19.9629 46.0242 19.2783C46.9318 18.2701 48.019 17.2361 49.2163 16.5655C48.586 18.0077 47.9287 19.4409 47.248 20.8578C46.8641 21.2453 46.5 21.6471 46.1574 22.0598ZM38.0171 34.4561C38.437 34.1493 38.839 33.8334 39.2445 33.5194C39.1371 33.7421 39.0278 33.9596 38.9203 34.1823C38.2665 35.528 37.6522 36.8934 37.0559 38.268C36.3055 38.6051 35.5712 38.9638 34.8352 39.3617C34.4708 39.5581 34.0291 39.7558 33.5983 39.9767C34.2235 38.7328 34.8487 37.4889 35.4758 36.2415C36.3986 35.8392 37.2364 35.0236 38.0171 34.4561ZM36.3034 34.577C36.7925 33.595 37.2761 32.6148 37.758 31.6292C38.9194 30.9674 39.9904 29.9386 41.0924 29.1978C41.297 29.0595 41.4962 28.923 41.6937 28.7812C41.0002 30.0265 40.3444 31.2952 39.7103 32.5659C39.1179 32.8842 38.5381 33.2223 37.9601 33.5747C37.4665 33.8758 36.8724 34.2066 36.3034 34.577ZM41.2461 32.4404C42.1237 30.551 43.0642 28.6887 44.0965 26.886C44.1126 26.8718 44.127 26.8611 44.1431 26.8469C44.1952 26.7972 44.2148 26.7401 44.2094 26.6882C44.5122 26.1663 44.8169 25.6498 45.1378 25.1369C43.8819 27.5907 42.5793 30.021 41.2461 32.4404Z" fill="#5E4F47"/>
<path d="M12.0915 44.4849C11.9117 44.4035 11.7302 44.3167 11.554 44.2281C12.1529 44.7032 12.8342 45.0591 13.5387 45.2436C13.1 44.9695 12.6398 44.7292 12.0915 44.4849Z" fill="#5E4F47"/>
<path d="M27.2685 5.09633C26.446 5.34371 19.4954 7.85503 21.9947 9.38804C22.1709 9.49447 22.3897 9.29196 22.3212 9.10572C22.0904 8.48073 23.9843 7.51735 24.3954 7.28197C25.4293 6.67656 26.4741 6.16593 27.4522 5.47443C27.6479 5.33613 27.5037 5.02258 27.2685 5.09633Z" fill="#5E4F47"/>
<path d="M32.751 11.2942C30.8578 10.1774 28.9589 8.90154 27.6039 7.29629C27.3412 6.98566 26.8619 7.27606 27.069 7.64357C28.5062 10.1786 31.4295 11.7908 33.8407 13.2751C35.8563 14.5159 37.9292 15.6426 40.029 16.7248C39.9663 16.8228 39.9053 16.9171 39.8498 17.0187C39.7494 17.1915 39.9724 17.3571 40.1268 17.2651C40.2686 17.1801 40.4014 17.0861 40.5288 16.9849C41.282 17.368 42.0371 17.7475 42.7939 18.1235C43.3602 18.4037 43.8229 17.8147 43.6821 17.3511C43.8022 17.1391 43.9169 16.9288 44.0585 16.7277C44.3902 16.2649 44.8605 15.9744 45.3883 15.7754C45.8749 15.5959 45.626 14.8368 45.1304 15.0073C44.2164 15.3203 43.4232 15.9396 42.9717 16.7842C42.4665 16.5258 41.9596 16.271 41.4544 16.0126C41.9224 15.4129 42.3257 14.745 42.7327 14.1594C42.8098 14.0508 42.6964 13.8732 42.5689 13.9654C41.9264 14.4283 41.3183 15.02 40.7892 15.6693C39.8796 15.2032 38.9735 14.7299 38.071 14.2495C38.4 13.2094 39.5702 12.4225 40.4985 12.0274C40.6744 11.9551 40.5914 11.6901 40.4029 11.7427C39.3631 12.0371 37.8013 12.8415 37.564 13.9768C36.8179 13.5794 36.079 13.1768 35.3454 12.7634C35.5469 11.6905 36.8753 10.9652 37.8756 10.7045C38.0462 10.6608 37.9829 10.4103 37.8177 10.4165C36.8099 10.4502 35.8222 10.7217 35.1172 11.4611C34.8769 11.7154 34.7174 12.0326 34.6352 12.3663C34.1552 12.0938 33.659 11.8176 33.1646 11.5289C33.2004 11.4933 33.2183 11.4487 33.2183 11.3951C33.1808 10.3227 34.4826 9.83848 35.2815 9.46766C35.5562 9.34231 35.4317 8.96275 35.1318 9.02184C34.4098 9.16791 33.5458 9.27388 33.0059 9.8195C32.5125 10.3261 32.5024 10.7496 32.751 11.2942Z" fill="#5E4F47"/>
<path d="M32.1054 47.8654C31.8688 48.2286 31.6069 48.5524 31.3289 48.8547C30.7823 49.8256 30.0667 50.6847 29.0975 51.2601C28.6685 51.5133 28.2465 51.6807 27.8335 51.7767C27.7707 51.8299 27.7061 51.8778 27.6433 51.9311C27.2987 52.2223 27.6391 52.7996 28.0411 52.5374C29.766 51.4176 31.4435 49.8454 32.3013 47.9594C32.355 47.8346 32.1789 47.755 32.1054 47.8654Z" fill="#5E4F47"/>
</svg>
